<svg width="22" height="22" viewBox="0 0 22 22" fill="none" xmlns="http://www.w3.org/2000/svg">
<path d="M9.40973 4.66318L5.68853 0.369457C5.25921 -0.125906 4.47312 -0.122705 3.97462 0.376453L0.914474 3.44066C0.00372923 4.35261 -0.25696 5.70702 0.269302 6.7927C3.43904 13.3319 8.65662 18.5564 15.1872 21.7304C16.2714 22.2573 17.6241 21.9963 18.5348 21.0844L21.624 17.9909C22.1245 17.4899 22.1254 16.6991 21.6262 16.2705L17.3136 12.569C16.8622 12.1816 16.162 12.2324 15.7096 12.6854L14.2095 14.1876C14.0426 14.3547 13.7918 14.3946 13.6011 14.2846C11.1445 12.8682 9.11966 10.8407 7.70514 8.38094C7.59529 8.18993 7.63524 7.93877 7.80205 7.77174L9.29764 6.27415C9.75194 5.81926 9.801 5.11461 9.40973 4.66318Z" fill="white"/>
</svg>
