<svg width="302" height="81" viewBox="0 0 302 81" fill="none" xmlns="http://www.w3.org/2000/svg">
<path d="M81.002 13.8187C47.126 23.5284 26.8033 54.3685 3.77665 78.374C1.7284 80.436 0.746954 80.6379 1.05625 78.3952C5.6434 58.009 22.1149 37.8883 32.8576 20.2176C33.711 18.8782 35.418 18.6392 34.4152 20.276C23.4003 38.3239 7.09435 57.8069 1.49365 78.3686C1.2856 79.9576 1.94185 79.9204 3.39805 78.4697C25.8754 53.9963 47.446 23.0767 81.1675 13.4521C81.5728 13.2874 81.5248 13.7179 81.002 13.8187Z" fill="black" stroke="black"/>
<path d="M66.0776 50.138C62.4025 52.1362 59.2499 53.7678 56.759 54.8308C54.2039 55.9151 52.2358 56.526 51.073 56.5952C48.7526 56.7333 49.8355 54.5173 51.1744 52.4393C49.8889 53.5182 48.2193 54.6926 46.6617 55.7078C45.4561 56.4944 41.8664 58.2002 41.4983 57.94C40.2182 57.0524 47.6965 49.4474 51.2489 48.9212C52.1023 48.7937 52.6037 49.2028 52.5877 50.0585C52.5449 50.4889 51.5743 50.9619 51.6008 50.5474C51.6329 50.0001 51.2328 49.7822 50.6514 49.814C46.2988 50.0639 38.9219 57.6583 41.6795 57.4988C42.9118 57.4245 45.5842 55.9841 46.587 55.421C48.4912 54.1668 50.4754 52.6149 51.7611 51.5412C52.2517 50.8823 52.4971 50.5528 52.9825 49.8938C53.4251 49.2932 54.4759 49.3784 53.7557 50.2074C52.4064 51.7911 48.4912 56.3138 51.3235 56.1436C52.4117 56.0798 54.2999 55.4633 56.7908 54.3952C59.1965 53.3641 62.3435 51.7803 66.0187 49.7822C66.0455 49.9254 66.0562 49.9944 66.0776 50.138Z" fill="black" stroke="black"/>
<path d="M77.6418 46.6782C77.4658 46.2584 76.8738 46.1096 76.3458 46.1839C70.1902 47.0235 64.5255 55.5533 60.7278 60.6021C60.5356 60.8996 60.4396 61.0485 60.2424 61.346C59.7196 62.2336 58.6527 62.2282 59.0794 61.4151C61.9651 56.4407 64.9255 51.509 67.8166 46.5346C68.3553 45.5726 69.4809 45.6524 68.9794 46.4654C66.8352 50.2334 65.0697 53.1299 62.872 56.8289C66.2857 52.455 71.1877 46.5506 76.5111 45.8119C77.1724 45.7215 77.8498 45.8757 78.0793 46.3647C78.2232 46.6464 77.8017 46.8855 77.6418 46.6782Z" fill="black" stroke="black"/>
<path d="M100.674 38.7809C93.9637 44.3982 87.3711 54.5703 79.2739 55.8671C75.9828 56.3932 82.7625 47.0236 84.3145 45.2168C84.8479 44.5418 85.6428 44.7808 85.312 45.2326C84.1279 46.7313 76.687 55.9572 79.4448 55.5002C87.403 54.1822 93.9211 43.9519 100.626 38.4248C101.063 38.1166 101.207 38.3982 100.674 38.7809Z" fill="black" stroke="black"/>
<path d="M117.679 47.1406C114.004 49.1336 110.857 50.7597 108.366 51.8173C105.811 52.9015 103.842 53.5073 102.685 53.5765C100.365 53.7146 101.448 51.5091 102.781 49.4364C101.496 50.51 99.8259 51.679 98.2737 52.6942C97.0681 53.4808 93.4785 55.176 93.1104 54.9209C91.8303 54.0333 99.3085 46.4551 102.856 45.9393C103.709 45.8119 104.21 46.2158 104.2 47.0714C104.157 47.5019 103.192 47.9695 103.213 47.5552C103.245 47.0078 102.845 46.7899 102.263 46.8271C97.9108 47.077 90.5446 54.6446 93.3022 54.4799C94.5345 54.4056 97.2069 52.9706 98.2096 52.4072C100.114 51.153 102.093 49.6118 103.378 48.5382C103.869 47.8846 104.109 47.5549 104.6 46.896C105.042 46.3007 106.093 46.3805 105.373 47.2095C104.024 48.7827 100.114 53.2892 102.946 53.1245C104.034 53.0606 105.922 52.4442 108.413 51.3813C110.819 50.3504 113.966 48.7771 117.636 46.7845C117.652 46.9281 117.657 47.0024 117.679 47.1406Z" fill="black" stroke="black"/>
<path d="M129.243 43.6968C129.067 43.2823 128.475 43.1282 127.947 43.2025C121.797 44.0369 116.143 52.5348 112.345 57.5728C112.153 57.8705 112.057 58.0194 111.865 58.3116C111.342 59.1992 110.275 59.1886 110.702 58.3806C113.588 53.4221 116.537 48.5117 119.423 43.5532C119.962 42.5964 121.087 42.671 120.586 43.484C118.447 47.2414 116.681 50.1218 114.489 53.8102C117.903 49.4472 122.799 43.5692 128.123 42.8359C128.784 42.7456 129.462 42.8998 129.691 43.3887C129.824 43.6596 129.403 43.8989 129.243 43.6968Z" fill="black" stroke="black"/>
<path d="M152.664 45.1105C148.995 47.0981 145.842 48.719 143.351 49.7765C140.796 50.8554 138.833 51.4611 137.67 51.5302C135.35 51.6684 136.433 49.4682 137.766 47.4008C136.481 48.4691 134.817 49.6383 133.259 50.6535C132.054 51.4347 128.469 53.1353 128.096 52.875C126.816 51.9874 134.299 44.4303 137.836 43.9147C138.689 43.7923 139.191 44.1911 139.18 45.0468C139.137 45.4773 138.172 45.9449 138.193 45.5305C138.225 44.9832 137.825 44.7703 137.244 44.8023C132.891 45.0522 125.53 52.5986 128.288 52.4393C129.52 52.365 132.187 50.93 133.195 50.3721C135.099 49.1231 137.078 47.5874 138.364 46.5137C138.849 45.8601 139.095 45.5305 139.585 44.8769C140.028 44.2816 141.079 44.3667 140.359 45.1852C139.014 46.7584 135.105 51.2543 137.937 51.0844C139.025 51.0204 140.913 50.4095 143.399 49.3412C145.805 48.3156 148.946 46.7425 152.621 44.7548C152.632 44.9032 152.643 44.9723 152.664 45.1105Z" fill="black" stroke="black"/>
<path d="M217.563 24.5806C206.586 25.4628 195.608 26.345 184.631 27.2326C177.675 36.0283 170.805 44.914 164.357 54.0868C162.415 56.7759 155.945 67.2668 159.31 67.7237C169.605 69.1268 187.431 49.4419 200.66 41.975C200.681 42.1132 200.692 42.1875 200.708 42.3257C187.287 49.8723 170.976 68.7388 159.033 68.2392C154.302 68.0425 161.37 56.6695 163.327 53.9326C169.285 45.3442 175.643 37.0006 182.199 28.8588C182.737 28.2317 183.004 27.9182 183.543 27.2911C177.974 27.8917 172.411 28.4922 166.842 29.0927C166.335 29.1192 166.8 28.1733 167.381 28.1359C172.939 27.6523 178.497 27.174 184.055 26.6903C189.677 19.9675 203.519 6.38367 203.519 6.38367C203.951 6.7292 190.674 21.2432 185.143 26.6318C196.035 25.8027 206.927 24.9686 217.819 24.1394C218.262 24.1184 218.091 24.4796 217.563 24.5806ZM187.069 24.2564C192.248 19.2237 203.199 6.83023 203.199 6.83023C202.964 6.63355 191.965 18.4691 187.069 24.2564Z" fill="black" stroke="black"/>
<path d="M212.267 38.8926C212.091 38.478 211.498 38.3292 210.965 38.4037C204.831 39.2329 199.182 47.6721 195.384 52.6891C195.192 52.9812 195.096 53.1301 194.904 53.4278C194.387 54.31 193.315 54.2994 193.742 53.4969C196.617 48.5703 199.561 43.6864 202.441 38.7599C202.98 37.8085 204.1 37.8829 203.604 38.6907C201.471 42.4268 199.71 45.286 197.523 48.9585C200.937 44.6112 205.828 38.7759 211.136 38.0477C211.797 37.9573 212.475 38.1117 212.704 38.5952C212.848 38.8606 212.427 39.0999 212.267 38.8926Z" fill="black" stroke="black"/>
<path d="M230.413 40.5294C224.599 43.5958 216.459 48.3682 211.733 47.9114C207.983 47.5445 218.603 39.3762 220.641 39.1211C222.726 38.8609 221.798 40.6782 219.318 41.9538C217.728 42.8252 215.547 43.5161 213.205 43.7234C210.874 45.7694 209.631 47.8689 211.904 47.55C218.032 46.6784 224.556 43.2081 230.343 40.2532C230.37 40.3647 230.386 40.4177 230.413 40.5294ZM213.824 43.2612C215.877 43.0697 217.878 42.4002 219.249 41.6721C220.246 41.1406 221.846 39.9662 220.177 40.0617C218.432 40.1626 215.824 41.6615 213.824 43.2612Z" fill="black" stroke="black"/>
<path d="M257.173 39.0467C253.488 41.0927 248.047 44.0901 244.782 44.2814C239.704 44.5791 242.569 40.2477 240.387 40.3752C238.211 40.5026 233.282 45.4505 230.114 45.7057C226.711 45.9766 229.719 41.2786 231.181 38.7225C231.698 37.8456 232.861 37.7764 232.344 38.6533C231.341 40.5508 228.05 45.4027 230.375 45.2646C233.058 45.1105 238.84 39.4771 241.022 39.3496C243.636 39.2008 240.67 44.1699 245.028 43.9148C248.148 43.7339 253.605 40.6623 257.131 38.6959C257.142 38.8394 257.152 38.9085 257.173 39.0467Z" fill="black" stroke="black"/>
<path d="M293.402 36.8783C285.892 41.0502 277.523 45.9291 269.116 47.0928C266.609 47.4382 265.084 46.3753 265.98 43.8243C268.31 37.229 273.325 31.2662 277.8 25.6754C271.383 32.0954 257.056 46.4444 253.493 44.8396C251.743 44.053 261.888 34.6357 265.025 34.2318C265.761 34.1361 266.289 34.5347 266.353 35.1404C266.428 35.8207 265.612 36.5913 265.42 35.6877C265.318 35.2732 264.897 35.05 264.427 35.1085C260.854 35.5709 253.194 44.1008 253.728 44.4728C255.813 45.9343 273.186 30.5061 279.704 23.3157C285.806 16.5875 300.987 1 300.987 1C301.483 1.3826 287.855 16.0665 282.558 21.1791C276.829 28.0029 269.916 35.5229 266.774 43.7816C265.942 45.9606 267.164 46.8268 269.314 46.5929C277.485 45.6947 286.089 40.5823 293.327 36.607C293.365 36.7083 293.375 36.7668 293.402 36.8783ZM284.569 18.7345C289.732 13.7443 300.661 1.43072 300.661 1.43072C300.432 1.23404 289.455 12.9845 284.569 18.7345Z" fill="black" stroke="black"/>
</svg>
